M48
; DRILL file {KiCad (5.1.5-0-10_14)} date 2020 September 21, Monday 14:55:20
; FORMAT={-:-/ absolute / metric / decimal}
; #@! TF.CreationDate,2020-09-21T14:55:20+09:00
; #@! TF.GenerationSoftware,Kicad,Pcbnew,(5.1.5-0-10_14)
FMAT,2
METRIC
T1C0.300
T2C0.400
T3C0.600
T4C0.700
T5C0.750
T6C0.800
T7C0.900
T8C0.950
T9C1.000
T10C1.100
T11C1.200
T12C1.300
T13C1.700
T14C1.800
T15C2.800
T16C3.500
T17C4.999
%
G90
G05
T1
X35.56Y-48.26
X35.56Y-58.42
X35.56Y-68.58
X35.56Y-78.74
X35.56Y-88.9
X35.56Y-99.06
X35.56Y-109.22
X35.56Y-119.38
X35.56Y-129.54
X35.56Y-139.7
X35.56Y-149.86
X35.56Y-160.02
X35.56Y-170.18
X35.56Y-180.34
X35.56Y-190.5
X35.56Y-200.66
X35.56Y-210.82
X35.56Y-220.98
X35.56Y-231.14
X35.56Y-251.46
X35.56Y-261.62
X40.64Y-53.34
X40.64Y-59.69
X40.64Y-68.58
X40.64Y-78.74
X40.64Y-88.9
X40.64Y-99.06
X40.64Y-109.22
X40.64Y-119.38
X40.64Y-129.54
X40.64Y-144.145
X40.64Y-149.86
X40.64Y-160.02
X40.64Y-170.18
X40.64Y-180.34
X40.64Y-190.5
X40.64Y-207.01
X40.64Y-224.79
X44.45Y-264.16
X44.45Y-271.78
X45.72Y-38.1
X45.72Y-48.26
X48.26Y-190.5
X49.53Y-204.47
X50.292Y-99.06
X50.292Y-109.22
X50.292Y-119.38
X50.292Y-129.54
X50.292Y-139.7
X50.292Y-149.86
X50.292Y-160.02
X50.292Y-170.18
X50.8Y-43.18
X50.8Y-53.34
X50.8Y-59.69
X50.8Y-68.58
X50.8Y-78.74
X50.8Y-224.79
X51.308Y-178.308
X53.34Y-175.26
X55.88Y-38.1
X55.88Y-48.26
X55.88Y-73.66
X55.88Y-83.82
X55.88Y-172.72
X55.88Y-177.8
X57.15Y-93.98
X57.15Y-100.33
X57.15Y-106.68
X57.15Y-114.3
X57.15Y-121.92
X57.15Y-129.54
X57.15Y-135.89
X57.15Y-140.97
X57.15Y-147.32
X57.15Y-152.4
X57.15Y-157.48
X57.15Y-162.56
X57.15Y-186.69
X58.42Y-175.26
X58.42Y-180.34
X59.69Y-90.17
X60.96Y-43.18
X60.96Y-53.34
X60.96Y-59.69
X60.96Y-68.58
X60.96Y-78.74
X60.96Y-207.01
X60.96Y-210.82
X60.96Y-214.63
X60.96Y-222.25
X62.23Y-93.98
X62.23Y-100.33
X62.23Y-106.68
X62.23Y-114.3
X62.23Y-121.92
X62.23Y-129.54
X62.23Y-135.89
X62.23Y-140.97
X62.23Y-147.32
X62.23Y-152.4
X62.23Y-157.48
X62.23Y-162.56
X63.5Y-264.16
X64.135Y-177.165
X64.135Y-179.07
X64.135Y-182.245
X66.04Y-38.1
X66.04Y-48.26
X66.04Y-73.66
X66.04Y-83.82
X67.31Y-93.98
X67.31Y-100.33
X67.31Y-106.68
X67.31Y-114.3
X67.31Y-120.65
X67.31Y-129.54
X67.31Y-135.89
X67.31Y-140.97
X67.31Y-147.32
X67.31Y-152.4
X67.31Y-157.48
X67.31Y-179.07
X67.31Y-182.245
X67.31Y-260.35
X67.31Y-271.78
X67.945Y-161.29
X69.215Y-180.975
X69.215Y-210.82
X69.215Y-215.9
X69.215Y-220.98
X69.85Y-90.17
X70.485Y-133.35
X70.485Y-135.255
X70.485Y-189.865
X71.12Y-43.18
X71.12Y-53.34
X71.12Y-59.69
X71.12Y-68.58
X71.12Y-78.74
X71.12Y-197.485
X71.12Y-222.885
X72.39Y-93.98
X72.39Y-100.33
X72.39Y-106.68
X72.39Y-114.3
X72.39Y-140.97
X72.39Y-147.32
X72.39Y-152.4
X72.39Y-157.48
X73.025Y-164.465
X73.66Y-133.35
X74.295Y-181.61
X74.93Y-138.43
X75.565Y-182.245
X76.835Y-161.925
X76.835Y-182.88
X77.47Y-140.97
X77.47Y-147.32
X77.47Y-157.48
X77.47Y-222.885
X77.47Y-235.585
X78.105Y-177.165
X78.74Y-195.58
X78.74Y-201.93
X78.74Y-209.55
X79.375Y-163.195
X80.01Y-93.98
X80.01Y-100.33
X80.01Y-106.68
X80.01Y-114.3
X80.01Y-120.015
X80.01Y-138.43
X80.645Y-184.785
X81.28Y-90.17
X81.28Y-134.62
X81.28Y-259.08
X81.28Y-271.78
X81.915Y-140.97
X82.55Y-92.71
X82.55Y-147.32
X82.55Y-152.4
X82.55Y-157.48
X82.55Y-174.625
X82.55Y-177.8
X82.55Y-198.12
X82.55Y-213.36
X82.55Y-225.425
X82.55Y-229.235
X84.455Y-100.33
X85.09Y-36.83
X85.09Y-68.58
X85.09Y-73.66
X85.09Y-83.82
X85.09Y-95.25
X85.09Y-106.68
X85.725Y-43.18
X85.725Y-53.34
X85.725Y-58.42
X85.725Y-177.8
X85.725Y-197.485
X85.725Y-227.965
X86.36Y-135.255
X86.36Y-201.93
X86.36Y-209.55
X87.63Y-78.74
X87.63Y-147.32
X87.63Y-152.4
X87.63Y-157.48
X87.63Y-271.78
X88.265Y-159.385
X88.265Y-178.435
X88.265Y-198.12
X88.265Y-228.6
X88.9Y-137.16
X90.17Y-95.25
X90.17Y-106.68
X90.17Y-113.03
X90.17Y-115.57
X90.805Y-160.655
X90.805Y-212.09
X90.805Y-234.315
X91.44Y-90.17
X91.44Y-116.84
X92.075Y-182.245
X92.075Y-210.82
X92.71Y-137.16
X92.71Y-156.845
X93.345Y-154.305
X93.345Y-177.165
X93.345Y-210.185
X93.345Y-213.995
X93.345Y-229.235
X93.98Y-118.745
X94.615Y-110.49
X94.615Y-134.62
X94.615Y-182.245
X95.25Y-36.83
X95.25Y-95.25
X95.25Y-114.3
X95.885Y-162.56
X95.885Y-179.07
X95.885Y-213.995
X95.885Y-229.87
X96.52Y-116.84
X96.52Y-120.65
X96.52Y-152.4
X96.52Y-156.845
X96.52Y-259.08
X96.52Y-271.78
X97.155Y-111.125
X97.155Y-138.43
X97.155Y-204.47
X97.155Y-210.185
X98.425Y-97.79
X98.425Y-114.935
X98.425Y-118.745
X98.425Y-156.21
X98.425Y-203.2
X98.425Y-212.09
X99.06Y-130.81
X99.06Y-135.89
X99.06Y-207.01
X99.695Y-79.375
X99.695Y-120.015
X99.695Y-179.705
X99.695Y-196.85
X100.33Y-152.4
X100.33Y-200.66
X100.965Y-97.155
X100.965Y-113.665
X100.965Y-138.43
X100.965Y-182.245
X100.965Y-213.36
X102.235Y-93.98
X102.235Y-112.395
X102.235Y-116.84
X102.235Y-119.38
X102.235Y-137.795
X102.235Y-253.365
X102.235Y-257.175
X102.87Y-133.35
X102.87Y-135.255
X103.505Y-79.375
X103.505Y-97.79
X103.505Y-138.43
X103.505Y-243.84
X104.14Y-152.4
X104.14Y-174.625
X104.14Y-194.31
X104.14Y-207.01
X104.14Y-215.9
X104.14Y-225.425
X104.14Y-253.365
X104.775Y-95.885
X104.775Y-135.255
X104.775Y-137.16
X105.41Y-36.83
X105.41Y-116.205
X106.045Y-96.52
X106.045Y-156.845
X106.68Y-137.16
X106.68Y-200.66
X106.68Y-250.825
X106.68Y-266.7
X107.315Y-79.375
X107.315Y-95.885
X107.315Y-157.48
X107.315Y-183.515
X107.315Y-227.965
X107.315Y-237.49
X107.95Y-119.38
X107.95Y-137.795
X108.585Y-97.79
X108.585Y-115.57
X108.585Y-179.705
X108.585Y-203.835
X109.22Y-117.475
X109.22Y-135.255
X109.22Y-152.4
X109.22Y-207.01
X109.855Y-93.98
X109.855Y-112.395
X109.855Y-177.8
X109.855Y-211.455
X109.855Y-235.585
X110.49Y-94.615
X110.49Y-118.745
X111.125Y-93.98
X111.125Y-137.795
X111.125Y-211.455
X111.125Y-229.235
X111.76Y-90.17
X111.76Y-96.52
X112.395Y-134.62
X112.395Y-136.525
X112.395Y-161.925
X112.395Y-181.61
X112.395Y-227.965
X113.03Y-93.98
X113.03Y-152.4
X113.665Y-148.59
X113.665Y-200.66
X113.665Y-207.01
X113.665Y-239.395
X114.3Y-134.62
X114.3Y-136.525
X114.3Y-266.7
X114.3Y-270.51
X114.935Y-160.02
X114.935Y-178.435
X114.935Y-215.265
X114.935Y-228.6
X115.57Y-36.83
X116.205Y-97.79
X116.205Y-134.62
X116.205Y-136.525
X116.205Y-208.28
X116.84Y-68.58
X116.84Y-78.74
X116.84Y-94.615
X116.84Y-112.395
X116.84Y-148.59
X116.84Y-152.4
X117.475Y-162.56
X117.475Y-182.245
X117.475Y-209.55
X117.475Y-233.045
X118.11Y-117.475
X118.11Y-137.795
X118.745Y-111.76
X118.745Y-205.105
X118.745Y-234.315
X119.38Y-134.62
X119.38Y-154.305
X119.38Y-245.745
X120.015Y-164.465
X120.015Y-177.165
X120.015Y-228.6
X120.65Y-41.91
X120.65Y-52.07
X120.65Y-60.96
X120.65Y-118.11
X120.65Y-138.43
X121.285Y-117.475
X121.285Y-179.07
X121.285Y-206.375
X121.92Y-73.66
X121.92Y-83.82
X121.92Y-90.17
X121.92Y-156.21
X121.92Y-263.525
X122.555Y-93.345
X122.555Y-116.205
X122.555Y-212.725
X123.19Y-113.03
X123.19Y-137.16
X123.19Y-179.07
X123.19Y-200.66
X123.825Y-97.79
X123.825Y-112.395
X123.825Y-196.85
X123.825Y-237.49
X124.46Y-160.02
X125.095Y-97.155
X125.73Y-36.83
X125.73Y-120.65
X125.73Y-135.89
X125.73Y-174.625
X125.73Y-179.07
X125.73Y-194.31
X125.73Y-225.425
X126.365Y-97.155
X126.365Y-116.84
X127.0Y-78.74
X127.635Y-95.25
X127.635Y-113.03
X128.27Y-130.81
X128.27Y-137.795
X128.27Y-154.305
X128.27Y-179.07
X128.27Y-245.745
X128.27Y-253.365
X128.905Y-116.205
X128.905Y-177.165
X128.905Y-197.485
X128.905Y-227.965
X129.54Y-138.43
X129.54Y-156.845
X129.54Y-200.66
X130.175Y-115.57
X130.81Y-114.935
X130.81Y-157.48
X130.81Y-260.35
X131.445Y-113.03
X131.445Y-179.07
X131.445Y-198.755
X131.445Y-214.63
X131.445Y-228.6
X132.08Y-90.17
X132.08Y-137.795
X132.08Y-160.655
X132.08Y-177.165
X132.715Y-114.935
X132.715Y-207.645
X133.35Y-116.84
X133.35Y-159.385
X133.985Y-96.52
X133.985Y-199.39
X133.985Y-210.82
X133.985Y-231.775
X133.985Y-260.35
X134.62Y-95.25
X134.62Y-116.84
X134.62Y-179.07
X135.255Y-204.47
X135.255Y-228.6
X135.89Y-36.83
X135.89Y-79.375
X135.89Y-135.255
X135.89Y-152.4
X135.89Y-183.515
X136.525Y-200.025
X136.525Y-213.995
X136.525Y-257.81
X137.16Y-93.345
X137.16Y-115.57
X137.16Y-137.795
X137.16Y-158.115
X137.795Y-137.16
X137.795Y-205.105
X138.43Y-115.57
X138.43Y-118.11
X138.43Y-181.61
X139.065Y-137.16
X139.065Y-163.83
X139.065Y-198.12
X139.065Y-215.265
X139.065Y-243.205
X139.065Y-258.445
X139.7Y-79.375
X139.7Y-158.75
X140.335Y-107.95
X140.335Y-207.01
X140.97Y-116.84
X140.97Y-137.16
X140.97Y-148.59
X140.97Y-152.4
X140.97Y-182.245
X140.97Y-260.35
X141.605Y-107.95
X141.605Y-200.66
X141.605Y-212.725
X141.605Y-255.905
X142.24Y-94.615
X142.24Y-119.38
X142.24Y-162.56
X142.875Y-107.95
X142.875Y-206.375
X143.51Y-79.375
X143.51Y-155.575
X143.51Y-242.57
X143.51Y-253.365
X144.145Y-215.265
X144.145Y-236.855
X144.145Y-255.27
X144.78Y-93.98
X144.78Y-115.57
X144.78Y-164.465
X145.415Y-113.03
X145.415Y-154.305
X145.415Y-205.74
X146.05Y-36.83
X146.05Y-251.46
X146.685Y-237.49
X146.685Y-239.395
X146.685Y-259.715
X147.32Y-134.62
X147.32Y-184.15
X147.32Y-194.31
X147.32Y-225.425
X147.955Y-116.205
X147.955Y-163.83
X147.955Y-256.54
X148.59Y-90.17
X148.59Y-136.525
X148.59Y-180.975
X148.59Y-237.49
X148.59Y-239.395
X149.225Y-114.935
X149.225Y-154.94
X149.225Y-251.46
X149.225Y-269.24
X149.86Y-118.745
X149.86Y-261.62
X150.114Y-194.31
X150.495Y-115.57
X150.495Y-137.16
X150.495Y-158.115
X150.495Y-237.49
X150.495Y-239.395
X151.13Y-73.66
X151.13Y-83.82
X151.765Y-164.465
X152.4Y-130.81
X152.4Y-237.49
X152.4Y-258.445
X152.4Y-265.43
X153.035Y-96.52
X153.035Y-112.395
X153.035Y-174.625
X153.67Y-44.45
X153.67Y-68.58
X153.67Y-78.74
X153.67Y-152.4
X153.67Y-213.995
X153.67Y-230.505
X154.305Y-134.62
X154.305Y-236.982
X154.94Y-90.17
X154.94Y-201.93
X154.94Y-240.03
X155.575Y-137.16
X155.575Y-155.575
X156.21Y-36.83
X156.21Y-130.81
X156.21Y-177.165
X156.21Y-212.725
X156.21Y-236.982
X156.845Y-164.465
X157.48Y-207.645
X157.48Y-255.905
X157.48Y-260.985
X157.48Y-265.43
X157.48Y-266.7
X158.115Y-92.71
X158.115Y-97.79
X158.115Y-117.475
X158.115Y-136.525
X158.115Y-158.75
X158.115Y-237.49
X158.75Y-179.07
X158.75Y-210.82
X158.75Y-227.965
X159.385Y-116.84
X159.385Y-133.35
X159.385Y-162.56
X160.02Y-205.105
X160.02Y-228.6
X160.02Y-236.855
X160.02Y-255.905
X160.02Y-259.08
X160.655Y-97.155
X161.29Y-41.91
X161.29Y-160.02
X161.29Y-210.185
X161.29Y-229.87
X161.925Y-92.71
X161.925Y-136.525
X161.925Y-202.565
X162.56Y-152.4
X162.56Y-250.825
X162.56Y-257.175
X163.195Y-137.16
X163.195Y-213.36
X163.83Y-90.17
X163.83Y-160.655
X163.83Y-212.725
X163.83Y-229.235
X163.83Y-269.24
X164.465Y-93.345
X164.465Y-135.89
X165.1Y-68.58
X165.1Y-83.82
X165.1Y-205.74
X165.1Y-238.125
X165.1Y-240.03
X165.1Y-260.985
X165.1Y-266.065
X165.735Y-97.79
X165.735Y-140.97
X166.37Y-36.83
X166.37Y-46.99
X166.37Y-148.59
X166.37Y-152.4
X166.37Y-159.385
X166.37Y-183.515
X166.37Y-196.85
X166.37Y-213.995
X166.37Y-228.6
X167.005Y-97.79
X167.005Y-106.045
X167.005Y-107.315
X167.005Y-108.585
X167.005Y-135.255
X167.64Y-209.55
X167.64Y-235.585
X167.64Y-257.81
X167.64Y-265.43
X168.275Y-97.79
X168.275Y-140.97
X168.275Y-159.385
X168.91Y-52.07
X168.91Y-60.96
X168.91Y-73.66
X168.91Y-78.74
X168.91Y-201.295
X169.545Y-93.98
X169.545Y-238.125
X169.545Y-240.03
X170.18Y-94.615
X170.18Y-148.59
X170.18Y-152.4
X170.815Y-243.205
X170.815Y-253.365
X171.45Y-162.56
X171.45Y-182.88
X172.085Y-225.425
X172.085Y-238.125
X172.085Y-240.03
X172.72Y-83.82
X172.72Y-95.25
X172.72Y-260.985
X172.72Y-265.43
X173.355Y-97.79
X173.355Y-136.525
X173.99Y-90.17
X173.99Y-148.59
X173.99Y-152.4
X173.99Y-159.385
X173.99Y-163.195
X173.99Y-258.445
X174.625Y-137.795
X174.625Y-240.03
X175.26Y-118.745
X175.26Y-238.125
X175.26Y-258.445
X175.895Y-134.62
X175.895Y-137.795
X176.53Y-36.83
X176.53Y-230.505
X177.165Y-138.43
X177.165Y-240.03
X177.8Y-92.075
X177.8Y-93.345
X177.8Y-96.52
X177.8Y-112.395
X177.8Y-151.13
X177.8Y-159.385
X177.8Y-209.55
X177.8Y-229.235
X177.8Y-243.205
X177.8Y-259.08
X177.8Y-266.065
X179.07Y-93.345
X179.07Y-135.89
X179.07Y-184.15
X179.07Y-227.965
X179.705Y-119.38
X180.34Y-97.155
X180.34Y-152.4
X180.34Y-180.975
X180.34Y-184.15
X180.34Y-215.265
X180.34Y-234.95
X180.34Y-236.22
X180.34Y-260.985
X180.34Y-266.065
X180.975Y-118.745
X180.975Y-137.795
X181.61Y-92.075
X181.61Y-159.385
X181.61Y-197.485
X181.61Y-256.54
X182.245Y-120.65
X182.88Y-79.375
X182.88Y-137.16
X182.88Y-157.48
X182.88Y-181.61
X182.88Y-213.36
X182.88Y-235.585
X182.88Y-259.08
X182.88Y-266.7
X184.15Y-93.345
X184.15Y-117.475
X184.15Y-137.16
X184.15Y-199.39
X184.15Y-229.87
X184.15Y-234.315
X184.15Y-258.445
X185.42Y-137.795
X185.42Y-156.845
X185.42Y-215.265
X185.42Y-227.965
X186.055Y-130.81
X186.69Y-36.83
X186.69Y-79.375
X186.69Y-135.255
X186.69Y-198.12
X187.325Y-159.385
X187.96Y-182.245
X187.96Y-198.12
X187.96Y-260.985
X187.96Y-266.7
X188.595Y-236.22
X189.23Y-94.615
X189.23Y-198.12
X189.23Y-213.995
X189.23Y-235.585
X190.5Y-79.375
X190.5Y-160.655
X190.5Y-182.88
X190.5Y-215.265
X190.5Y-228.6
X191.135Y-114.935
X191.135Y-136.525
X191.77Y-97.79
X191.77Y-196.85
X191.77Y-230.505
X191.77Y-240.03
X192.405Y-118.11
X192.405Y-135.255
X192.405Y-243.205
X192.405Y-253.365
X193.04Y-107.95
X193.04Y-160.02
X193.04Y-228.6
X193.04Y-238.76
X193.04Y-240.03
X193.675Y-134.62
X194.31Y-90.17
X194.945Y-135.89
X195.58Y-160.02
X195.58Y-214.63
X195.58Y-242.57
X195.58Y-257.81
X195.58Y-265.43
X196.215Y-137.795
X196.215Y-194.31
X196.215Y-196.85
X196.85Y-36.83
X196.85Y-78.74
X196.85Y-107.95
X196.85Y-153.67
X196.85Y-213.995
X196.85Y-259.08
X197.485Y-136.525
X197.485Y-158.75
X198.12Y-209.55
X198.755Y-116.84
X198.755Y-134.62
X198.755Y-148.59
X198.755Y-174.625
X199.39Y-113.03
X199.39Y-215.265
X200.025Y-135.89
X200.66Y-68.58
X200.66Y-78.74
X200.66Y-118.11
X200.66Y-256.54
X201.295Y-135.89
X201.295Y-148.59
X201.295Y-225.425
X201.295Y-234.95
X201.93Y-41.91
X201.93Y-52.07
X201.93Y-60.96
X201.93Y-118.745
X201.93Y-158.75
X201.93Y-177.8
X201.93Y-184.15
X201.93Y-213.36
X203.2Y-196.85
X203.2Y-234.95
X203.2Y-266.065
X203.835Y-118.745
X203.835Y-151.13
X204.47Y-46.99
X204.47Y-57.15
X204.47Y-73.66
X204.47Y-83.82
X204.47Y-90.17
X204.47Y-97.79
X204.47Y-110.49
X204.47Y-213.36
X204.47Y-230.505
X205.105Y-177.8
X205.74Y-113.03
X205.74Y-215.265
X205.74Y-235.585
X205.74Y-255.905
X205.74Y-265.43
X206.375Y-152.4
X207.01Y-36.83
X207.01Y-114.3
X207.01Y-130.81
X207.01Y-208.28
X207.01Y-233.045
X207.01Y-238.76
X207.645Y-179.705
X208.28Y-78.74
X208.28Y-118.11
X208.28Y-201.93
X208.28Y-208.28
X208.28Y-229.87
X208.915Y-138.43
X208.915Y-151.765
X208.915Y-234.315
X209.55Y-112.395
X209.55Y-213.995
X209.55Y-241.3
X209.55Y-255.905
X210.185Y-134.62
X210.185Y-137.16
X210.185Y-156.21
X210.185Y-215.265
X210.82Y-110.49
X210.82Y-138.43
X210.82Y-214.63
X210.82Y-266.7
X211.455Y-137.16
X212.09Y-111.125
X212.09Y-210.82
X212.09Y-229.235
X212.725Y-118.11
X212.725Y-137.795
X212.725Y-151.765
X212.725Y-156.845
X212.725Y-212.725
X212.725Y-234.315
X213.36Y-111.76
X213.36Y-213.36
X213.36Y-242.57
X213.36Y-250.825
X213.36Y-259.715
X213.995Y-135.89
X213.995Y-154.305
X214.63Y-90.17
X214.63Y-227.965
X214.63Y-231.775
X214.63Y-257.81
X215.265Y-135.255
X215.265Y-157.48
X215.265Y-214.63
X216.535Y-151.765
X216.662Y-252.095
X216.662Y-254.762
X217.17Y-36.83
X217.17Y-119.38
X217.17Y-208.28
X217.17Y-236.22
X217.17Y-240.03
X217.17Y-243.84
X217.805Y-117.475
X217.805Y-158.115
X217.805Y-194.31
X217.805Y-259.715
X218.44Y-79.375
X218.44Y-228.6
X218.44Y-233.68
X218.44Y-237.49
X219.075Y-115.57
X219.075Y-136.525
X219.075Y-138.43
X219.075Y-151.13
X219.71Y-92.71
X219.71Y-107.95
X219.71Y-197.485
X219.71Y-214.63
X220.345Y-118.11
X220.345Y-137.16
X220.345Y-151.765
X220.345Y-159.385
X220.98Y-228.6
X221.615Y-136.525
X221.615Y-194.31
X222.25Y-79.375
X222.885Y-118.745
X222.885Y-163.195
X222.885Y-225.425
X223.52Y-111.76
X224.155Y-118.745
X224.155Y-196.85
X224.155Y-229.235
X224.155Y-250.825
X224.79Y-95.25
X224.79Y-148.59
X225.425Y-116.84
X225.425Y-214.63
X225.425Y-257.175
X226.06Y-79.375
X226.06Y-118.11
X226.06Y-174.625
X226.06Y-225.425
X226.695Y-198.755
X227.33Y-36.83
X227.33Y-93.98
X227.33Y-112.395
X227.33Y-148.59
X227.33Y-229.87
X227.965Y-200.66
X227.965Y-210.82
X228.6Y-118.745
X228.6Y-130.81
X229.235Y-250.825
X229.87Y-88.9
X229.87Y-112.395
X229.87Y-151.765
X230.505Y-163.83
X230.505Y-199.39
X230.505Y-205.74
X230.505Y-230.505
X231.14Y-113.665
X231.14Y-119.38
X231.775Y-134.62
X231.775Y-160.02
X231.775Y-180.975
X231.775Y-200.025
X231.775Y-207.645
X232.41Y-96.52
X232.41Y-151.765
X233.045Y-155.575
X233.045Y-198.755
X233.68Y-73.66
X233.68Y-83.82
X233.68Y-113.03
X233.68Y-233.68
X234.315Y-134.62
X234.315Y-163.195
X234.315Y-180.975
X234.315Y-200.66
X234.315Y-207.01
X234.315Y-250.825
X234.95Y-153.67
X235.585Y-119.38
X235.585Y-183.515
X235.585Y-205.105
X236.855Y-137.795
X236.855Y-153.035
X236.855Y-156.21
X236.855Y-181.61
X236.855Y-184.15
X236.855Y-212.725
X236.855Y-233.045
X237.49Y-36.83
X237.49Y-68.58
X237.49Y-78.74
X237.49Y-88.9
X237.49Y-95.885
X238.125Y-52.07
X238.125Y-116.205
X238.125Y-204.47
X238.76Y-113.03
X238.76Y-138.43
X238.76Y-199.39
X239.395Y-118.745
X239.395Y-135.255
X239.395Y-156.21
X239.395Y-158.115
X239.395Y-160.655
X239.395Y-206.375
X239.395Y-250.825
X240.03Y-232.41
X240.665Y-136.525
X240.665Y-153.67
X240.665Y-164.465
X240.665Y-183.515
X240.665Y-203.835
X241.3Y-36.83
X241.3Y-46.99
X241.3Y-57.15
X241.3Y-67.31
X241.3Y-77.47
X241.3Y-87.63
X241.3Y-137.795
X241.3Y-210.82
X241.935Y-138.43
X241.935Y-154.94
X241.935Y-182.245
X241.935Y-212.725
X242.57Y-151.13
X242.57Y-199.39
X243.205Y-182.88
X243.205Y-194.31
X243.205Y-231.775
X243.84Y-153.67
X243.84Y-157.48
X244.475Y-107.95
X244.475Y-113.03
X244.475Y-118.11
X244.475Y-135.89
X244.475Y-211.455
X245.11Y-199.39
X246.38Y-41.91
X246.38Y-52.07
X246.38Y-62.23
X246.38Y-72.39
X246.38Y-82.55
X246.38Y-92.71
X246.38Y-163.195
X247.015Y-118.11
X247.015Y-202.565
X247.65Y-148.59
X247.65Y-153.67
X247.65Y-157.48
X247.65Y-214.63
X247.65Y-225.425
X249.555Y-182.88
X249.555Y-201.295
X250.19Y-107.95
X250.19Y-113.03
X250.19Y-130.81
X250.19Y-148.59
X250.825Y-177.165
X250.825Y-233.68
X251.46Y-36.83
X251.46Y-46.99
X251.46Y-57.15
X251.46Y-67.31
X251.46Y-77.47
X251.46Y-87.63
X251.46Y-153.67
X251.46Y-157.48
X252.095Y-209.55
X252.095Y-184.15
X252.095Y-199.39
X253.365Y-116.205
X253.365Y-134.62
X253.365Y-162.56
X253.365Y-179.07
X253.365Y-228.6
X254.0Y-209.55
X254.0Y-214.63
X254.635Y-97.155
X254.635Y-137.16
X254.635Y-162.56
X254.635Y-181.61
X254.635Y-183.515
X254.635Y-201.295
X255.905Y-96.52
X255.905Y-135.255
X255.905Y-161.29
X255.905Y-163.83
X255.905Y-170.815
X255.905Y-206.375
X256.54Y-41.91
X256.54Y-52.07
X256.54Y-62.23
X256.54Y-72.39
X256.54Y-82.55
X256.54Y-92.71
X256.54Y-144.78
X257.175Y-161.925
X257.175Y-180.975
X257.175Y-199.39
X258.445Y-111.125
X258.445Y-137.795
X258.445Y-162.56
X258.445Y-197.485
X258.445Y-205.105
X258.445Y-221.615
X259.08Y-117.475
X259.715Y-114.935
X259.715Y-180.975
X259.715Y-190.5
X260.35Y-144.78
X260.985Y-97.79
X260.985Y-114.935
X260.985Y-164.465
X260.985Y-181.61
X260.985Y-207.01
X261.62Y-36.83
X261.62Y-46.99
X261.62Y-57.15
X261.62Y-67.31
X261.62Y-77.47
X261.62Y-87.63
X261.62Y-163.83
X262.255Y-183.515
X263.525Y-96.52
X263.525Y-111.125
X263.525Y-118.11
X263.525Y-135.89
X263.525Y-137.795
X263.525Y-159.385
X263.525Y-190.5
X263.525Y-199.39
X263.525Y-205.105
X263.525Y-209.55
X263.525Y-214.63
X263.525Y-221.615
X264.795Y-116.84
X264.795Y-151.13
X264.795Y-182.88
X266.065Y-115.57
X266.065Y-163.83
X266.065Y-212.09
X266.7Y-52.07
X266.7Y-62.23
X266.7Y-72.39
X266.7Y-82.55
X266.7Y-92.71
X266.7Y-186.055
X266.7Y-201.295
X267.335Y-110.49
X267.335Y-151.765
X267.335Y-184.15
X267.97Y-154.94
X267.97Y-158.75
X267.97Y-162.56
X268.605Y-118.745
X268.605Y-137.795
X268.605Y-203.2
X268.605Y-221.615
X269.24Y-127.0
X269.24Y-182.245
X269.875Y-170.815
X269.875Y-189.865
X269.875Y-197.485
X270.51Y-104.14
X270.51Y-111.76
X270.51Y-144.78
X270.51Y-154.94
X270.51Y-158.75
X270.51Y-162.56
X271.145Y-177.165
X271.145Y-233.045
X271.78Y-46.99
X271.78Y-57.15
X271.78Y-67.31
X271.78Y-77.47
X271.78Y-87.63
X271.78Y-177.8
X271.78Y-232.41
X272.415Y-133.35
X272.415Y-231.775
X273.05Y-100.33
X273.05Y-115.57
X273.05Y-123.19
X273.05Y-127.0
X273.05Y-130.81
X273.685Y-179.07
X273.685Y-229.235
X274.32Y-179.705
X274.32Y-229.87
X274.955Y-120.65
X274.955Y-230.505
T2
X45.085Y-62.23
X45.085Y-184.785
X54.61Y-184.785
X54.61Y-192.405
X64.135Y-170.18
X73.66Y-126.365
X75.565Y-205.105
X76.835Y-39.37
X76.835Y-62.23
X83.82Y-46.355
X85.725Y-170.18
X85.725Y-189.865
X85.725Y-220.98
X88.9Y-44.069
X88.9Y-70.231
X89.789Y-47.625
X89.789Y-72.898
X90.678Y-52.07
X90.678Y-72.009
X91.567Y-71.12
X91.567Y-56.515
X92.456Y-60.071
X92.456Y-69.342
X93.345Y-66.675
X93.345Y-144.145
X94.615Y-68.453
X94.615Y-103.505
X95.885Y-69.342
X97.155Y-67.564
X98.425Y-70.231
X99.695Y-272.415
X100.965Y-72.898
X102.87Y-126.365
X106.045Y-70.231
X107.315Y-170.18
X107.315Y-189.865
X107.315Y-220.98
X108.585Y-69.342
X108.585Y-248.92
X109.855Y-71.12
X110.49Y-56.515
X110.49Y-66.675
X111.125Y-72.009
X111.379Y-52.07
X111.379Y-67.564
X112.268Y-47.625
X112.268Y-68.453
X113.157Y-69.342
X113.157Y-44.069
X114.046Y-41.402
X114.046Y-70.231
X116.205Y-39.37
X118.745Y-103.505
X119.38Y-144.145
X125.095Y-44.069
X125.095Y-70.231
X125.984Y-47.625
X125.984Y-72.898
X126.873Y-52.07
X126.873Y-72.009
X127.762Y-71.12
X127.762Y-56.515
X128.651Y-60.071
X128.651Y-69.342
X128.905Y-189.865
X128.905Y-220.98
X129.54Y-66.675
X130.81Y-68.453
X132.08Y-69.342
X132.08Y-126.365
X132.08Y-170.18
X133.35Y-67.564
X133.985Y-242.57
X133.985Y-248.92
X134.62Y-70.231
X137.16Y-72.898
X138.43Y-272.415
X142.24Y-70.231
X144.78Y-69.342
X145.415Y-103.505
X145.415Y-144.145
X146.05Y-71.12
X146.685Y-56.515
X146.685Y-66.675
X147.32Y-72.009
X147.32Y-272.415
X147.574Y-52.07
X147.574Y-67.564
X148.463Y-47.625
X148.463Y-68.453
X149.352Y-69.342
X149.352Y-44.069
X150.241Y-41.402
X150.241Y-70.231
X151.13Y-46.99
X151.13Y-60.325
X152.4Y-248.92
X153.67Y-189.865
X153.67Y-220.98
X155.575Y-103.505
X156.21Y-170.18
X158.115Y-43.18
X159.385Y-126.365
X161.925Y-43.18
X167.64Y-272.415
X172.085Y-44.069
X172.085Y-70.231
X172.974Y-47.625
X172.974Y-72.898
X173.863Y-52.07
X173.863Y-72.009
X173.99Y-248.92
X174.752Y-71.12
X174.752Y-56.515
X175.26Y-103.505
X175.26Y-189.865
X175.26Y-220.98
X175.641Y-60.071
X175.641Y-69.342
X176.53Y-66.675
X177.8Y-68.453
X177.8Y-144.145
X179.07Y-69.342
X180.34Y-67.564
X180.34Y-170.18
X181.61Y-70.231
X184.15Y-72.898
X188.595Y-126.365
X189.23Y-70.231
X190.5Y-261.62
X191.77Y-69.342
X193.04Y-71.12
X193.675Y-56.515
X193.675Y-66.675
X194.31Y-72.009
X194.564Y-52.07
X194.564Y-67.564
X195.453Y-47.625
X195.453Y-68.453
X195.58Y-248.92
X196.342Y-69.342
X196.342Y-44.069
X197.231Y-41.402
X197.231Y-70.231
X198.12Y-46.99
X198.12Y-60.325
X198.12Y-261.62
X199.39Y-103.505
X199.39Y-189.865
X203.835Y-144.145
X204.47Y-220.98
X205.105Y-170.18
X205.74Y-261.62
X207.645Y-44.069
X207.645Y-70.231
X208.534Y-47.625
X208.534Y-72.898
X209.423Y-52.07
X209.423Y-72.009
X210.185Y-126.365
X210.312Y-71.12
X210.312Y-56.515
X211.201Y-60.071
X211.201Y-69.342
X212.09Y-66.675
X212.725Y-261.62
X212.725Y-272.415
X213.36Y-68.453
X214.63Y-69.342
X215.9Y-67.564
X217.17Y-70.231
X219.71Y-72.898
X220.345Y-248.92
X223.52Y-103.505
X224.155Y-189.865
X224.79Y-70.231
X227.33Y-69.342
X228.6Y-71.12
X229.235Y-56.515
X229.235Y-66.675
X229.235Y-170.18
X229.235Y-220.98
X229.87Y-72.009
X229.87Y-144.145
X230.124Y-52.07
X230.124Y-67.564
X231.013Y-47.625
X231.013Y-68.453
X231.775Y-126.365
X231.902Y-69.342
X231.902Y-44.069
X232.791Y-41.402
X232.791Y-70.231
X233.68Y-46.99
X233.68Y-60.325
X245.745Y-189.865
X250.825Y-170.18
X250.825Y-220.98
X253.365Y-103.505
X253.365Y-126.365
X253.365Y-144.145
T3
X160.655Y-57.785
X161.925Y-57.785
X80.01Y-46.355
X81.28Y-46.355
X160.655Y-46.355
X161.925Y-46.355
T4
X128.27Y-243.84
X128.27Y-248.92
X227.965Y-257.81
X233.045Y-257.81
X152.4Y-240.03
X157.48Y-240.03
X220.98Y-236.22
X220.98Y-241.3
X130.81Y-251.46
X130.81Y-256.54
X158.115Y-57.15
X158.115Y-64.77
X224.155Y-236.22
X224.155Y-241.3
X131.445Y-242.57
X136.525Y-242.57
X162.56Y-75.565
X162.56Y-80.645
X227.33Y-236.22
X227.33Y-241.3
X68.58Y-200.025
X68.58Y-205.105
X82.55Y-75.565
X82.55Y-80.645
X158.115Y-75.565
X158.115Y-80.645
X230.505Y-236.22
X230.505Y-241.3
X68.58Y-189.865
X68.58Y-194.945
X77.47Y-75.565
X77.47Y-80.645
X164.465Y-57.15
X164.465Y-64.77
X233.68Y-236.22
X233.68Y-241.3
X208.28Y-259.715
X205.74Y-263.525
X210.82Y-263.525
X81.28Y-57.15
X81.28Y-64.77
X236.855Y-236.22
X236.855Y-241.3
X198.12Y-263.525
X203.2Y-263.525
X236.22Y-57.15
X236.22Y-64.77
X240.03Y-236.22
X240.03Y-241.3
X190.5Y-263.525
X195.58Y-263.525
X243.205Y-236.22
X243.205Y-241.3
X147.32Y-265.43
X147.32Y-270.51
X138.43Y-265.43
X138.43Y-270.51
X200.66Y-57.15
X200.66Y-64.77
X167.64Y-263.525
X172.72Y-263.525
X175.26Y-263.525
X180.34Y-263.525
X182.88Y-263.525
X187.96Y-263.525
X153.67Y-57.15
X153.67Y-64.77
X144.145Y-259.715
X152.4Y-263.525
X157.48Y-263.525
X160.02Y-263.525
X165.1Y-263.525
X116.205Y-41.91
X116.205Y-49.53
X146.05Y-243.205
X99.695Y-265.43
X128.27Y-241.3
X150.495Y-225.425
X158.115Y-46.99
X158.115Y-54.61
X136.525Y-259.715
X142.875Y-229.87
X164.465Y-46.99
X164.465Y-54.61
X124.46Y-263.525
X129.54Y-263.525
X106.68Y-257.175
X111.76Y-257.175
X83.82Y-49.53
X83.82Y-57.15
X114.3Y-257.175
X119.38Y-257.175
X119.38Y-248.92
X119.38Y-254.0
X200.66Y-242.57
X205.74Y-242.57
X111.125Y-239.395
X116.205Y-239.395
X236.22Y-46.99
X236.22Y-54.61
X111.125Y-241.935
X116.205Y-241.935
X104.14Y-259.715
X109.22Y-259.715
X104.14Y-263.525
X205.74Y-240.03
X210.82Y-240.03
X214.63Y-261.62
X57.15Y-204.47
X64.77Y-204.47
X200.66Y-46.99
X200.66Y-54.61
X153.67Y-46.99
X153.67Y-54.61
X167.64Y-242.57
X184.15Y-242.57
X116.205Y-52.07
X116.205Y-59.69
X200.66Y-259.715
X205.74Y-259.715
X136.525Y-240.03
X141.605Y-240.03
X189.23Y-242.57
X203.2Y-259.715
X162.56Y-242.57
X59.69Y-189.23
X64.77Y-189.23
X99.695Y-269.24
X104.775Y-269.24
X133.985Y-256.54
X139.065Y-256.54
X217.805Y-257.81
X222.885Y-257.81
T5
X158.75Y-70.485
X160.02Y-69.215
X160.02Y-71.755
X78.105Y-70.485
X79.375Y-69.215
X79.375Y-71.755
T6
X128.905Y-186.69
X128.905Y-194.31
X131.445Y-186.69
X131.445Y-194.31
X133.985Y-186.69
X133.985Y-194.31
X136.525Y-186.69
X136.525Y-194.31
X139.065Y-186.69
X139.065Y-194.31
X141.605Y-186.69
X141.605Y-194.31
X144.145Y-186.69
X144.145Y-194.31
X123.825Y-254.0
X123.825Y-256.54
X123.825Y-259.08
X128.905Y-217.805
X128.905Y-225.425
X131.445Y-217.805
X131.445Y-225.425
X133.985Y-217.805
X133.985Y-225.425
X136.525Y-217.805
X136.525Y-225.425
X139.065Y-217.805
X139.065Y-225.425
X141.605Y-217.805
X141.605Y-225.425
X144.145Y-217.805
X144.145Y-225.425
X172.085Y-192.445
X172.085Y-194.945
X147.32Y-218.48
X147.32Y-220.98
X153.035Y-167.68
X153.035Y-170.18
X228.6Y-123.865
X228.6Y-126.365
X72.39Y-231.14
X72.39Y-238.76
X74.93Y-231.14
X74.93Y-238.76
X171.45Y-101.005
X171.45Y-103.505
X160.02Y-240.03
X162.52Y-240.03
X82.55Y-187.365
X82.55Y-189.865
X242.57Y-187.365
X242.57Y-189.865
X253.365Y-123.19
X253.365Y-130.81
X255.905Y-123.19
X255.905Y-130.81
X258.445Y-123.19
X258.445Y-130.81
X260.985Y-123.19
X260.985Y-130.81
X263.525Y-123.19
X263.525Y-130.81
X266.065Y-123.19
X266.065Y-130.81
X268.605Y-123.19
X268.605Y-130.81
X85.725Y-186.69
X85.725Y-194.31
X88.265Y-186.69
X88.265Y-194.31
X90.805Y-186.69
X90.805Y-194.31
X93.345Y-186.69
X93.345Y-194.31
X95.885Y-186.69
X95.885Y-194.31
X98.425Y-186.69
X98.425Y-194.31
X100.965Y-186.69
X100.965Y-194.31
X128.27Y-256.58
X128.27Y-259.08
X195.58Y-101.005
X195.58Y-103.505
X175.26Y-217.805
X175.26Y-225.425
X177.8Y-217.805
X177.8Y-225.425
X180.34Y-217.805
X180.34Y-225.425
X182.88Y-217.805
X182.88Y-225.425
X185.42Y-217.805
X185.42Y-225.425
X187.96Y-217.805
X187.96Y-225.425
X190.5Y-217.805
X190.5Y-225.425
X193.04Y-217.805
X193.04Y-225.425
X195.58Y-217.805
X195.58Y-225.425
X198.12Y-217.805
X198.12Y-225.425
X149.225Y-246.42
X149.225Y-248.92
X201.295Y-218.48
X201.295Y-220.98
X93.345Y-140.97
X93.345Y-148.59
X95.885Y-140.97
X95.885Y-148.59
X98.425Y-140.97
X98.425Y-148.59
X100.965Y-140.97
X100.965Y-148.59
X103.505Y-140.97
X103.505Y-148.59
X106.045Y-140.97
X106.045Y-148.59
X108.585Y-140.97
X108.585Y-148.59
X111.125Y-140.97
X111.125Y-148.59
X153.67Y-217.805
X153.67Y-225.425
X156.21Y-217.805
X156.21Y-225.425
X158.75Y-217.805
X158.75Y-225.425
X161.29Y-217.805
X161.29Y-225.425
X163.83Y-217.805
X163.83Y-225.425
X166.37Y-217.805
X166.37Y-225.425
X168.91Y-217.805
X168.91Y-225.425
X88.265Y-81.995
X88.265Y-86.995
X75.565Y-215.265
X80.565Y-215.265
X67.31Y-123.865
X67.31Y-126.365
X119.38Y-140.97
X119.38Y-148.59
X121.92Y-140.97
X121.92Y-148.59
X124.46Y-140.97
X124.46Y-148.59
X127.0Y-140.97
X127.0Y-148.59
X129.54Y-140.97
X129.54Y-148.59
X132.08Y-140.97
X132.08Y-148.59
X134.62Y-140.97
X134.62Y-148.59
X137.16Y-140.97
X137.16Y-148.59
X224.155Y-186.69
X224.155Y-194.31
X226.695Y-186.69
X226.695Y-194.31
X229.235Y-186.69
X229.235Y-194.31
X231.775Y-186.69
X231.775Y-194.31
X234.315Y-186.69
X234.315Y-194.31
X236.855Y-186.69
X236.855Y-194.31
X239.395Y-186.69
X239.395Y-194.31
X253.365Y-140.97
X253.365Y-148.59
X255.905Y-140.97
X255.905Y-148.59
X258.445Y-140.97
X258.445Y-148.59
X260.985Y-140.97
X260.985Y-148.59
X263.525Y-140.97
X263.525Y-148.59
X266.065Y-140.97
X266.065Y-148.59
X268.605Y-140.97
X268.605Y-148.59
X167.64Y-260.985
X170.14Y-260.985
X105.41Y-246.42
X105.41Y-248.92
X114.935Y-101.005
X114.935Y-103.505
X222.885Y-218.48
X222.885Y-220.98
X175.26Y-100.33
X175.26Y-107.95
X177.8Y-100.33
X177.8Y-107.95
X180.34Y-100.33
X180.34Y-107.95
X182.88Y-100.33
X182.88Y-107.95
X185.42Y-100.33
X185.42Y-107.95
X187.96Y-100.33
X187.96Y-107.95
X190.5Y-100.33
X190.5Y-107.95
X153.67Y-186.69
X153.67Y-194.31
X156.21Y-186.69
X156.21Y-194.31
X158.75Y-186.69
X158.75Y-194.31
X161.29Y-186.69
X161.29Y-194.31
X163.83Y-186.69
X163.83Y-194.31
X166.37Y-186.69
X166.37Y-194.31
X168.91Y-186.69
X168.91Y-194.31
X208.32Y-242.57
X210.82Y-242.57
X103.505Y-86.995
X103.505Y-89.495
X84.455Y-98.505
X84.455Y-103.505
X90.17Y-141.645
X90.17Y-144.145
X172.085Y-218.48
X172.085Y-220.98
X247.65Y-218.48
X247.65Y-220.98
X132.08Y-123.19
X132.08Y-130.81
X134.62Y-123.19
X134.62Y-130.81
X137.16Y-123.19
X137.16Y-130.81
X139.7Y-123.19
X139.7Y-130.81
X142.24Y-123.19
X142.24Y-130.81
X144.78Y-123.19
X144.78Y-130.81
X147.32Y-123.19
X147.32Y-130.81
X149.86Y-123.19
X149.86Y-130.81
X249.555Y-101.005
X249.555Y-103.505
X217.805Y-261.62
X220.305Y-261.62
X104.14Y-167.68
X104.14Y-170.18
X57.785Y-167.68
X57.785Y-170.18
X129.54Y-75.565
X129.54Y-83.185
X132.08Y-75.565
X132.08Y-83.185
X134.62Y-75.565
X134.62Y-83.185
X137.16Y-75.565
X137.16Y-83.185
X139.7Y-75.565
X139.7Y-83.185
X142.24Y-75.565
X142.24Y-83.185
X144.78Y-75.565
X144.78Y-83.185
X147.32Y-75.565
X147.32Y-83.185
X107.315Y-217.805
X107.315Y-225.425
X109.855Y-217.805
X109.855Y-225.425
X112.395Y-217.805
X112.395Y-225.425
X114.935Y-217.805
X114.935Y-225.425
X117.475Y-217.805
X117.475Y-225.425
X120.015Y-217.805
X120.015Y-225.425
X122.555Y-217.805
X122.555Y-225.425
X199.39Y-100.33
X199.39Y-107.95
X201.93Y-100.33
X201.93Y-107.95
X204.47Y-100.33
X204.47Y-107.95
X207.01Y-100.33
X207.01Y-107.95
X209.55Y-100.33
X209.55Y-107.95
X212.09Y-100.33
X212.09Y-107.95
X214.63Y-100.33
X214.63Y-107.95
X104.14Y-218.48
X104.14Y-220.98
X128.905Y-167.68
X128.905Y-170.18
X75.565Y-193.675
X80.565Y-193.675
X79.375Y-187.365
X79.375Y-189.865
X207.01Y-123.865
X207.01Y-126.365
X119.38Y-240.705
X119.38Y-243.205
X141.605Y-101.005
X141.605Y-103.505
X93.345Y-75.565
X93.345Y-83.185
X95.885Y-75.565
X95.885Y-83.185
X98.425Y-75.565
X98.425Y-83.185
X100.965Y-75.565
X100.965Y-83.185
X103.505Y-75.565
X103.505Y-83.185
X106.045Y-75.565
X106.045Y-83.185
X108.585Y-75.565
X108.585Y-83.185
X111.125Y-75.565
X111.125Y-83.185
X152.4Y-260.985
X154.9Y-260.985
X87.63Y-101.005
X87.63Y-103.505
X175.26Y-260.985
X177.76Y-260.985
X130.81Y-246.42
X130.81Y-248.92
X219.71Y-101.005
X219.71Y-103.505
X222.25Y-86.995
X222.25Y-89.495
X199.39Y-186.69
X199.39Y-194.31
X201.93Y-186.69
X201.93Y-194.31
X204.47Y-186.69
X204.47Y-194.31
X207.01Y-186.69
X207.01Y-194.31
X209.55Y-186.69
X209.55Y-194.31
X212.09Y-186.69
X212.09Y-194.31
X214.63Y-186.69
X214.63Y-194.31
X107.315Y-167.005
X107.315Y-174.625
X109.855Y-167.005
X109.855Y-174.625
X112.395Y-167.005
X112.395Y-174.625
X114.935Y-167.005
X114.935Y-174.625
X117.475Y-167.005
X117.475Y-174.625
X120.015Y-167.005
X120.015Y-174.625
X122.555Y-167.005
X122.555Y-174.625
X91.44Y-268.605
X91.44Y-270.605
X86.995Y-141.645
X86.995Y-144.145
X105.41Y-240.665
X108.81Y-240.665
X141.48Y-265.51
X141.48Y-268.01
X141.48Y-270.51
X144.78Y-265.51
X144.78Y-268.01
X144.78Y-270.51
X70.485Y-128.945
X70.485Y-131.445
X57.15Y-192.405
X57.15Y-194.945
X57.15Y-197.485
X57.15Y-200.025
X64.77Y-192.405
X64.77Y-194.945
X64.77Y-197.485
X64.77Y-200.025
X247.65Y-167.68
X247.65Y-170.18
X253.365Y-100.33
X253.365Y-107.95
X255.905Y-100.33
X255.905Y-107.95
X258.445Y-100.33
X258.445Y-107.95
X260.985Y-100.33
X260.985Y-107.95
X263.525Y-100.33
X263.525Y-107.95
X266.065Y-100.33
X266.065Y-107.95
X268.605Y-100.33
X268.605Y-107.95
X102.87Y-123.19
X102.87Y-130.81
X105.41Y-123.19
X105.41Y-130.81
X107.95Y-123.19
X107.95Y-130.81
X110.49Y-123.19
X110.49Y-130.81
X113.03Y-123.19
X113.03Y-130.81
X115.57Y-123.19
X115.57Y-130.81
X118.11Y-123.19
X118.11Y-130.81
X120.65Y-123.19
X120.65Y-130.81
X123.19Y-123.19
X123.19Y-130.81
X125.73Y-123.19
X125.73Y-130.81
X245.745Y-186.69
X245.745Y-194.31
X248.285Y-186.69
X248.285Y-194.31
X250.825Y-186.69
X250.825Y-194.31
X253.365Y-186.69
X253.365Y-194.31
X255.905Y-186.69
X255.905Y-194.31
X258.445Y-186.69
X258.445Y-194.31
X260.985Y-186.69
X260.985Y-194.31
X132.59Y-265.51
X132.59Y-268.01
X132.59Y-270.51
X135.89Y-265.51
X135.89Y-268.01
X135.89Y-270.51
X82.55Y-167.68
X82.55Y-170.18
X64.135Y-167.005
X64.135Y-174.625
X66.675Y-167.005
X66.675Y-174.625
X69.215Y-167.005
X69.215Y-174.625
X71.755Y-167.005
X71.755Y-174.625
X74.295Y-167.005
X74.295Y-174.625
X76.835Y-167.005
X76.835Y-174.625
X79.375Y-167.005
X79.375Y-174.625
X250.19Y-141.645
X250.19Y-144.145
X99.695Y-123.865
X99.695Y-126.365
X73.66Y-123.19
X73.66Y-130.81
X76.2Y-123.19
X76.2Y-130.81
X78.74Y-123.19
X78.74Y-130.81
X81.28Y-123.19
X81.28Y-130.81
X83.82Y-123.19
X83.82Y-130.81
X86.36Y-123.19
X86.36Y-130.81
X88.9Y-123.19
X88.9Y-130.81
X91.44Y-123.19
X91.44Y-130.81
X93.98Y-123.19
X93.98Y-130.81
X96.52Y-123.19
X96.52Y-130.81
X60.96Y-167.68
X60.96Y-170.18
X82.55Y-218.48
X82.55Y-220.98
X125.73Y-167.68
X125.73Y-170.18
X53.975Y-164.465
X58.975Y-164.465
X125.73Y-187.365
X125.73Y-189.865
X171.45Y-141.645
X171.45Y-144.145
X250.825Y-167.005
X250.825Y-174.625
X253.365Y-167.005
X253.365Y-174.625
X255.905Y-167.005
X255.905Y-174.625
X258.445Y-167.005
X258.445Y-174.625
X260.985Y-167.005
X260.985Y-174.625
X263.525Y-167.005
X263.525Y-174.625
X266.065Y-167.005
X266.065Y-174.625
X268.605Y-167.005
X268.605Y-174.625
X177.8Y-140.97
X177.8Y-148.59
X180.34Y-140.97
X180.34Y-148.59
X182.88Y-140.97
X182.88Y-148.59
X185.42Y-140.97
X185.42Y-148.59
X187.96Y-140.97
X187.96Y-148.59
X190.5Y-140.97
X190.5Y-148.59
X193.04Y-140.97
X193.04Y-148.59
X195.58Y-140.97
X195.58Y-148.59
X85.725Y-217.805
X85.725Y-225.425
X88.265Y-217.805
X88.265Y-225.425
X90.805Y-217.805
X90.805Y-225.425
X93.345Y-217.805
X93.345Y-225.425
X95.885Y-217.805
X95.885Y-225.425
X98.425Y-217.805
X98.425Y-225.425
X100.965Y-217.805
X100.965Y-225.425
X250.825Y-217.805
X250.825Y-225.425
X253.365Y-217.805
X253.365Y-225.425
X255.905Y-217.805
X255.905Y-225.425
X258.445Y-217.805
X258.445Y-225.425
X260.985Y-217.805
X260.985Y-225.425
X263.525Y-217.805
X263.525Y-225.425
X266.065Y-217.805
X266.065Y-225.425
X268.605Y-217.805
X268.605Y-225.425
X160.02Y-260.985
X162.52Y-260.985
X123.825Y-240.665
X123.825Y-243.205
X123.825Y-245.745
X170.815Y-246.42
X170.815Y-248.92
X168.275Y-101.005
X168.275Y-103.505
X220.98Y-187.365
X220.98Y-189.865
X180.34Y-167.005
X180.34Y-174.625
X182.88Y-167.005
X182.88Y-174.625
X185.42Y-167.005
X185.42Y-174.625
X187.96Y-167.005
X187.96Y-174.625
X190.5Y-167.005
X190.5Y-174.625
X193.04Y-167.005
X193.04Y-174.625
X195.58Y-167.005
X195.58Y-174.625
X186.69Y-86.995
X186.69Y-89.495
X85.725Y-167.005
X85.725Y-174.625
X88.265Y-167.005
X88.265Y-174.625
X90.805Y-167.005
X90.805Y-174.625
X93.345Y-167.005
X93.345Y-174.625
X95.885Y-167.005
X95.885Y-174.625
X98.425Y-167.005
X98.425Y-174.625
X100.965Y-167.005
X100.965Y-174.625
X246.38Y-101.005
X246.38Y-103.505
X188.595Y-123.19
X188.595Y-130.81
X191.135Y-123.19
X191.135Y-130.81
X193.675Y-123.19
X193.675Y-130.81
X196.215Y-123.19
X196.215Y-130.81
X198.755Y-123.19
X198.755Y-130.81
X201.295Y-123.19
X201.295Y-130.81
X203.835Y-123.19
X203.835Y-130.81
X205.105Y-167.005
X205.105Y-174.625
X207.645Y-167.005
X207.645Y-174.625
X210.185Y-167.005
X210.185Y-174.625
X212.725Y-167.005
X212.725Y-174.625
X215.265Y-167.005
X215.265Y-174.625
X217.805Y-167.005
X217.805Y-174.625
X220.345Y-167.005
X220.345Y-174.625
X222.885Y-167.005
X222.885Y-174.625
X231.775Y-123.19
X231.775Y-130.81
X234.315Y-123.19
X234.315Y-130.81
X236.855Y-123.19
X236.855Y-130.81
X239.395Y-123.19
X239.395Y-130.81
X241.935Y-123.19
X241.935Y-130.81
X244.475Y-123.19
X244.475Y-130.81
X247.015Y-123.19
X247.015Y-130.81
X116.205Y-141.645
X116.205Y-144.145
X203.835Y-140.97
X203.835Y-148.59
X206.375Y-140.97
X206.375Y-148.59
X208.915Y-140.97
X208.915Y-148.59
X211.455Y-140.97
X211.455Y-148.59
X213.995Y-140.97
X213.995Y-148.59
X216.535Y-140.97
X216.535Y-148.59
X219.075Y-140.97
X219.075Y-148.59
X221.615Y-140.97
X221.615Y-148.59
X152.4Y-245.745
X152.4Y-253.365
X154.94Y-245.745
X154.94Y-253.365
X157.48Y-245.745
X157.48Y-253.365
X160.02Y-245.745
X160.02Y-253.365
X162.56Y-245.745
X162.56Y-253.365
X165.1Y-245.745
X165.1Y-253.365
X167.64Y-245.745
X167.64Y-253.365
X107.315Y-186.69
X107.315Y-194.31
X109.855Y-186.69
X109.855Y-194.31
X112.395Y-186.69
X112.395Y-194.31
X114.935Y-186.69
X114.935Y-194.31
X117.475Y-186.69
X117.475Y-194.31
X120.015Y-186.69
X120.015Y-194.31
X122.555Y-186.69
X122.555Y-194.31
X156.21Y-123.865
X156.21Y-126.365
X104.14Y-187.365
X104.14Y-189.865
X229.235Y-217.805
X229.235Y-225.425
X231.775Y-217.805
X231.775Y-225.425
X234.315Y-217.805
X234.315Y-225.425
X236.855Y-217.805
X236.855Y-225.425
X239.395Y-217.805
X239.395Y-225.425
X241.935Y-217.805
X241.935Y-225.425
X244.475Y-217.805
X244.475Y-225.425
X201.93Y-172.76
X201.93Y-175.26
X217.805Y-187.365
X217.805Y-189.865
X146.05Y-246.42
X146.05Y-248.92
X64.135Y-121.365
X64.135Y-126.365
X201.93Y-167.68
X201.93Y-170.18
X173.99Y-245.745
X173.99Y-253.365
X176.53Y-245.745
X176.53Y-253.365
X179.07Y-245.745
X179.07Y-253.365
X181.61Y-245.745
X181.61Y-253.365
X184.15Y-245.745
X184.15Y-253.365
X186.69Y-245.745
X186.69Y-253.365
X189.23Y-245.745
X189.23Y-253.365
X145.415Y-100.33
X145.415Y-107.95
X147.955Y-100.33
X147.955Y-107.95
X150.495Y-100.33
X150.495Y-107.95
X153.035Y-100.33
X153.035Y-107.95
X155.575Y-100.33
X155.575Y-107.95
X158.115Y-100.33
X158.115Y-107.95
X160.655Y-100.33
X160.655Y-107.95
X163.195Y-100.33
X163.195Y-107.95
X200.66Y-141.645
X200.66Y-144.145
X94.615Y-100.33
X94.615Y-107.95
X97.155Y-100.33
X97.155Y-107.95
X99.695Y-100.33
X99.695Y-107.95
X102.235Y-100.33
X102.235Y-107.95
X104.775Y-100.33
X104.775Y-107.95
X107.315Y-100.33
X107.315Y-107.95
X109.855Y-100.33
X109.855Y-107.95
X177.165Y-167.68
X177.165Y-170.18
X159.385Y-123.19
X159.385Y-130.81
X161.925Y-123.19
X161.925Y-130.81
X164.465Y-123.19
X164.465Y-130.81
X167.005Y-123.19
X167.005Y-130.81
X169.545Y-123.19
X169.545Y-130.81
X172.085Y-123.19
X172.085Y-130.81
X174.625Y-123.19
X174.625Y-130.81
X177.165Y-123.19
X177.165Y-130.81
X179.705Y-123.19
X179.705Y-130.81
X182.245Y-123.19
X182.245Y-130.81
X83.82Y-139.145
X83.82Y-144.145
X204.47Y-217.805
X204.47Y-225.425
X207.01Y-217.805
X207.01Y-225.425
X209.55Y-217.805
X209.55Y-225.425
X212.09Y-217.805
X212.09Y-225.425
X214.63Y-217.805
X214.63Y-225.425
X217.17Y-217.805
X217.17Y-225.425
X219.71Y-217.805
X219.71Y-225.425
X79.375Y-218.48
X79.375Y-220.98
X226.06Y-167.68
X226.06Y-170.18
X196.215Y-187.365
X196.215Y-189.865
X198.755Y-167.68
X198.755Y-170.18
X250.19Y-123.865
X250.19Y-126.365
X147.32Y-187.365
X147.32Y-189.865
X226.695Y-141.645
X226.695Y-144.145
X220.345Y-245.745
X220.345Y-253.365
X222.885Y-245.745
X222.885Y-253.365
X225.425Y-245.745
X225.425Y-253.365
X227.965Y-245.745
X227.965Y-253.365
X230.505Y-245.745
X230.505Y-253.365
X233.045Y-245.745
X233.045Y-253.365
X235.585Y-245.745
X235.585Y-253.365
X238.125Y-245.745
X238.125Y-253.365
X240.665Y-245.745
X240.665Y-253.365
X243.205Y-245.745
X243.205Y-253.365
X108.585Y-245.745
X108.585Y-253.365
X111.125Y-245.745
X111.125Y-253.365
X113.665Y-245.745
X113.665Y-253.365
X116.205Y-245.745
X116.205Y-253.365
X145.415Y-140.97
X145.415Y-148.59
X147.955Y-140.97
X147.955Y-148.59
X150.495Y-140.97
X150.495Y-148.59
X153.035Y-140.97
X153.035Y-148.59
X155.575Y-140.97
X155.575Y-148.59
X158.115Y-140.97
X158.115Y-148.59
X160.655Y-140.97
X160.655Y-148.59
X163.195Y-140.97
X163.195Y-148.59
X229.235Y-167.005
X229.235Y-174.625
X231.775Y-167.005
X231.775Y-174.625
X234.315Y-167.005
X234.315Y-174.625
X236.855Y-167.005
X236.855Y-174.625
X239.395Y-167.005
X239.395Y-174.625
X241.935Y-167.005
X241.935Y-174.625
X244.475Y-167.005
X244.475Y-174.625
X192.405Y-246.42
X192.405Y-248.92
X217.17Y-246.42
X217.17Y-248.92
X175.26Y-186.69
X175.26Y-194.31
X177.8Y-186.69
X177.8Y-194.31
X180.34Y-186.69
X180.34Y-194.31
X182.88Y-186.69
X182.88Y-194.31
X185.42Y-186.69
X185.42Y-194.31
X187.96Y-186.69
X187.96Y-194.31
X190.5Y-186.69
X190.5Y-194.31
X193.04Y-186.69
X193.04Y-194.31
X182.88Y-260.985
X185.38Y-260.985
X153.035Y-123.865
X153.035Y-126.365
X150.495Y-187.365
X150.495Y-189.865
X133.985Y-245.745
X133.985Y-253.365
X136.525Y-245.745
X136.525Y-253.365
X139.065Y-245.745
X139.065Y-253.365
X141.605Y-245.745
X141.605Y-253.365
X128.905Y-172.76
X128.905Y-175.26
X195.58Y-245.745
X195.58Y-253.365
X198.12Y-245.745
X198.12Y-253.365
X200.66Y-245.745
X200.66Y-253.365
X203.2Y-245.745
X203.2Y-253.365
X205.74Y-245.745
X205.74Y-253.365
X208.28Y-245.745
X208.28Y-253.365
X210.82Y-245.745
X210.82Y-253.365
X139.7Y-86.995
X139.7Y-89.495
X226.06Y-218.48
X226.06Y-220.98
X102.235Y-246.42
X102.235Y-248.92
X128.905Y-123.865
X128.905Y-126.365
X172.085Y-187.365
X172.085Y-189.865
X118.745Y-100.33
X118.745Y-107.95
X121.285Y-100.33
X121.285Y-107.95
X123.825Y-100.33
X123.825Y-107.95
X126.365Y-100.33
X126.365Y-107.95
X128.905Y-100.33
X128.905Y-107.95
X131.445Y-100.33
X131.445Y-107.95
X133.985Y-100.33
X133.985Y-107.95
X136.525Y-100.33
X136.525Y-107.95
X132.08Y-167.005
X132.08Y-174.625
X134.62Y-167.005
X134.62Y-174.625
X137.16Y-167.005
X137.16Y-174.625
X139.7Y-167.005
X139.7Y-174.625
X142.24Y-167.005
X142.24Y-174.625
X144.78Y-167.005
X144.78Y-174.625
X147.32Y-167.005
X147.32Y-174.625
X149.86Y-167.005
X149.86Y-174.625
X212.09Y-75.565
X212.09Y-83.185
X214.63Y-75.565
X214.63Y-83.185
X217.17Y-75.565
X217.17Y-83.185
X219.71Y-75.565
X219.71Y-83.185
X222.25Y-75.565
X222.25Y-83.185
X224.79Y-75.565
X224.79Y-83.185
X227.33Y-75.565
X227.33Y-83.185
X229.87Y-75.565
X229.87Y-83.185
X229.87Y-140.97
X229.87Y-148.59
X232.41Y-140.97
X232.41Y-148.59
X234.95Y-140.97
X234.95Y-148.59
X237.49Y-140.97
X237.49Y-148.59
X240.03Y-140.97
X240.03Y-148.59
X242.57Y-140.97
X242.57Y-148.59
X245.11Y-140.97
X245.11Y-148.59
X142.24Y-141.645
X142.24Y-144.145
X125.73Y-218.48
X125.73Y-220.98
X210.185Y-123.19
X210.185Y-130.81
X212.725Y-123.19
X212.725Y-130.81
X215.265Y-123.19
X215.265Y-130.81
X217.805Y-123.19
X217.805Y-130.81
X220.345Y-123.19
X220.345Y-130.81
X222.885Y-123.19
X222.885Y-130.81
X225.425Y-123.19
X225.425Y-130.81
X70.485Y-123.865
X70.485Y-126.365
X150.495Y-218.48
X150.495Y-220.98
X185.42Y-123.865
X185.42Y-126.365
X90.805Y-101.005
X90.805Y-103.505
X174.625Y-141.645
X174.625Y-144.145
X176.53Y-75.565
X176.53Y-83.185
X179.07Y-75.565
X179.07Y-83.185
X181.61Y-75.565
X181.61Y-83.185
X184.15Y-75.565
X184.15Y-83.185
X186.69Y-75.565
X186.69Y-83.185
X189.23Y-75.565
X189.23Y-83.185
X191.77Y-75.565
X191.77Y-83.185
X194.31Y-75.565
X194.31Y-83.185
X223.52Y-100.33
X223.52Y-107.95
X226.06Y-100.33
X226.06Y-107.95
X228.6Y-100.33
X228.6Y-107.95
X231.14Y-100.33
X231.14Y-107.95
X233.68Y-100.33
X233.68Y-107.95
X236.22Y-100.33
X236.22Y-107.95
X238.76Y-100.33
X238.76Y-107.95
X241.3Y-100.33
X241.3Y-107.95
X156.21Y-167.005
X156.21Y-174.625
X158.75Y-167.005
X158.75Y-174.625
X161.29Y-167.005
X161.29Y-174.625
X163.83Y-167.005
X163.83Y-174.625
X166.37Y-167.005
X166.37Y-174.625
X168.91Y-167.005
X168.91Y-174.625
X171.45Y-167.005
X171.45Y-174.625
X173.99Y-167.005
X173.99Y-174.625
T7
X261.62Y-251.46
X248.92Y-248.92
X254.0Y-241.3
X259.08Y-238.76
X266.7Y-194.31
X254.0Y-261.62
X261.62Y-254.0
X226.06Y-269.24
X233.68Y-269.24
X241.3Y-264.16
X266.7Y-259.08
X264.16Y-243.84
X111.76Y-259.715
X119.38Y-259.715
X238.76Y-266.7
X254.0Y-251.46
X266.7Y-236.22
X77.47Y-152.4
X233.68Y-266.7
X261.62Y-261.62
X259.08Y-254.0
X264.16Y-241.3
X238.76Y-259.08
X226.06Y-271.78
X274.32Y-248.92
X271.78Y-236.22
X259.08Y-266.7
X251.46Y-261.62
X264.16Y-256.54
X251.46Y-251.46
X251.46Y-259.08
X254.0Y-246.38
X248.92Y-236.22
X223.52Y-271.78
X251.46Y-271.78
X259.08Y-269.24
X264.16Y-264.16
X269.24Y-251.46
X256.54Y-238.76
X251.46Y-266.7
X233.68Y-271.78
X231.14Y-269.24
X256.54Y-256.54
X241.3Y-261.62
X269.24Y-248.92
X271.78Y-241.3
X264.16Y-261.62
X266.7Y-254.0
X259.08Y-271.78
X243.84Y-269.24
X218.44Y-264.16
X271.78Y-243.84
X259.08Y-251.46
X271.78Y-246.38
X248.92Y-241.3
X215.9Y-269.24
X231.14Y-264.16
X274.32Y-259.08
X266.7Y-243.84
X261.62Y-246.38
X243.84Y-266.7
X246.38Y-266.7
X261.62Y-236.22
X269.24Y-256.54
X248.92Y-254.0
X274.32Y-238.76
X238.76Y-264.16
X254.0Y-243.84
X256.54Y-259.08
X251.46Y-248.92
X85.09Y-114.3
X241.3Y-269.24
X261.62Y-266.7
X259.08Y-261.62
X271.78Y-256.54
X248.92Y-243.84
X83.82Y-265.43
X91.44Y-265.43
X220.98Y-271.78
X254.0Y-271.78
X259.08Y-259.08
X264.16Y-248.92
X261.62Y-269.24
X246.38Y-264.16
X266.7Y-238.76
X241.3Y-271.78
X246.38Y-269.24
X254.0Y-264.16
X256.54Y-246.38
X241.3Y-259.08
X256.54Y-248.92
X231.14Y-266.7
X261.62Y-241.3
X264.16Y-238.76
X238.76Y-261.62
X274.32Y-254.0
X261.62Y-271.78
X218.44Y-269.24
X236.22Y-264.16
X251.46Y-256.54
X261.62Y-243.84
X226.06Y-266.7
X248.92Y-251.46
X269.24Y-236.22
X273.05Y-107.95
X248.92Y-266.7
X264.16Y-254.0
X269.24Y-241.3
X271.78Y-259.08
X256.54Y-251.46
X259.08Y-246.38
X274.32Y-236.22
X248.92Y-261.62
X256.54Y-236.22
X261.62Y-256.54
X256.54Y-254.0
X251.46Y-238.76
X220.98Y-264.16
X248.92Y-259.08
X269.24Y-246.38
X251.46Y-236.22
X256.54Y-269.24
X259.08Y-264.16
X254.0Y-238.76
X238.76Y-271.78
X246.38Y-271.78
X218.44Y-271.78
X266.7Y-261.62
X254.0Y-256.54
X195.58Y-240.03
X203.2Y-240.03
X241.3Y-266.7
X266.7Y-248.92
X274.32Y-261.62
X256.54Y-271.78
X254.0Y-269.24
X251.46Y-264.16
X274.32Y-243.84
X264.16Y-251.46
X274.32Y-246.38
X256.54Y-241.3
X256.54Y-261.62
X75.565Y-243.205
X75.565Y-250.825
X238.76Y-269.24
X228.6Y-264.16
X269.24Y-259.08
X259.08Y-243.84
X251.46Y-246.38
X228.6Y-266.7
X215.9Y-266.7
X264.16Y-236.22
X218.44Y-266.7
X271.78Y-254.0
X259.08Y-241.3
X226.06Y-264.16
X269.24Y-243.84
X254.0Y-259.08
X271.78Y-248.92
X246.38Y-248.92
X264.16Y-266.7
X246.38Y-261.62
X259.08Y-256.54
X266.7Y-251.46
X256.54Y-243.84
X246.38Y-259.08
X231.14Y-271.78
X243.84Y-271.78
X264.16Y-269.24
X261.62Y-264.16
X274.32Y-251.46
X248.92Y-238.76
X236.22Y-271.78
X223.52Y-269.24
X251.46Y-254.0
X236.22Y-259.08
X243.84Y-261.62
X254.0Y-248.92
X251.46Y-241.3
X269.24Y-238.76
X271.78Y-261.62
X269.24Y-254.0
X264.16Y-271.78
X251.46Y-269.24
X233.68Y-264.16
X243.84Y-259.08
X251.46Y-243.84
X152.4Y-242.57
X160.02Y-242.57
X223.52Y-266.7
X271.78Y-251.46
X82.55Y-205.74
X266.7Y-241.3
X266.7Y-256.54
X220.98Y-269.24
X264.16Y-259.08
X264.16Y-246.38
X246.38Y-254.0
X256.54Y-266.7
X259.08Y-236.22
X236.22Y-269.24
X274.32Y-256.54
X254.0Y-254.0
X271.78Y-238.76
X254.0Y-266.7
X215.9Y-264.16
X236.22Y-266.7
X261.62Y-259.08
X266.7Y-246.38
X261.62Y-248.92
X254.0Y-236.22
X228.6Y-269.24
X256.54Y-264.16
X236.22Y-261.62
X261.62Y-238.76
X223.52Y-264.16
X248.92Y-256.54
X274.32Y-241.3
X215.9Y-271.78
X248.92Y-271.78
X259.08Y-248.92
X220.98Y-266.7
X248.92Y-264.16
X269.24Y-261.62
X228.6Y-271.78
X248.92Y-269.24
X243.84Y-264.16
X248.92Y-246.38
X109.22Y-269.24
X111.76Y-269.24
T8
X152.4Y-269.24
X154.9Y-269.24
X157.4Y-269.24
X159.9Y-269.24
X167.64Y-269.24
X170.14Y-269.24
X172.64Y-269.24
X175.14Y-269.24
X177.64Y-269.24
X180.14Y-269.24
X182.64Y-269.24
X185.14Y-269.24
X119.38Y-269.24
X121.88Y-269.24
X124.38Y-269.24
X126.88Y-269.24
T9
X205.74Y-269.24
X210.74Y-269.24
X190.5Y-269.24
X195.5Y-269.24
X198.12Y-269.24
X203.12Y-269.24
T10
X72.39Y-243.205
X72.39Y-253.365
X57.15Y-207.645
X57.15Y-217.805
X109.22Y-263.525
X119.38Y-263.525
X85.09Y-260.35
X87.63Y-260.35
X90.17Y-260.35
X64.77Y-207.645
X64.77Y-217.805
T11
X45.085Y-212.805
X45.085Y-217.805
X45.085Y-231.905
X45.085Y-255.905
X51.085Y-255.905
X57.085Y-231.905
X57.085Y-255.905
X45.085Y-196.215
X45.085Y-201.215
X74.93Y-262.89
X74.93Y-267.89
T12
X45.085Y-207.645
X47.625Y-64.77
X47.625Y-182.245
X52.07Y-182.245
X52.07Y-194.945
X52.705Y-201.295
X52.705Y-217.805
X53.975Y-86.995
X53.975Y-103.505
X53.975Y-126.365
X53.975Y-144.145
X53.975Y-170.18
X60.96Y-184.785
X66.04Y-227.965
X66.04Y-252.73
X68.58Y-225.425
X68.58Y-255.905
X72.39Y-227.965
X74.93Y-225.425
X74.93Y-253.365
X75.565Y-184.785
X75.565Y-189.865
X75.565Y-220.98
X79.375Y-232.41
X83.82Y-262.89
X99.695Y-232.41
X99.695Y-240.665
X99.695Y-248.92
T13
X49.865Y-268.605
X53.825Y-268.605
X57.785Y-268.605
T14
X81.38Y-253.57
X93.88Y-253.57
T15
X214.595Y-47.57
X214.595Y-52.07
X214.595Y-56.57
X216.345Y-44.07
X216.345Y-60.07
X220.345Y-43.07
X220.345Y-61.07
X224.345Y-44.07
X224.345Y-60.07
X226.095Y-47.57
X226.095Y-52.07
X226.095Y-56.57
X132.045Y-47.57
X132.045Y-52.07
X132.045Y-56.57
X133.795Y-44.07
X133.795Y-60.07
X137.795Y-43.07
X137.795Y-61.07
X141.795Y-44.07
X141.795Y-60.07
X143.545Y-47.57
X143.545Y-52.07
X143.545Y-56.57
X179.035Y-47.57
X179.035Y-52.07
X179.035Y-56.57
X180.785Y-44.07
X180.785Y-60.07
X184.785Y-43.07
X184.785Y-61.07
X188.785Y-44.07
X188.785Y-60.07
X190.535Y-47.57
X190.535Y-52.07
X190.535Y-56.57
X95.85Y-47.57
X95.85Y-52.07
X95.85Y-56.57
X97.6Y-44.07
X97.6Y-60.07
X101.6Y-43.07
X101.6Y-61.07
X105.6Y-44.07
X105.6Y-60.07
X107.35Y-47.57
X107.35Y-52.07
X107.35Y-56.57
T16
X272.0Y-269.0
X37.0Y-269.0
X272.0Y-39.0
X37.0Y-39.0
T17
X220.345Y-52.07
X137.795Y-52.07
X184.785Y-52.07
X101.6Y-52.07
T0
M30
